<?xml version="1.0"?>
<svg xmlns="http://www.w3.org/2000/svg" viewBox="0 0 512 512" width="112" height="112"><g id="Out_line" data-name="Out line"><path d="M328,264H24a7.99977,7.99977,0,0,0-8,8V488a7.99977,7.99977,0,0,0,8,8H328a7.99977,7.99977,0,0,0,8-8V272A7.99977,7.99977,0,0,0,328,264Zm-15.412,16L208.7124,427.61279a40,40,0,0,1-65.4248,0L39.412,280ZM32,480V297.26965L130.20264,436.8208a56.00026,56.00026,0,0,0,91.59472,0L320,297.26965V480Z"/><path d="M488,16H184a7.99977,7.99977,0,0,0-8,8V240a7.99977,7.99977,0,0,0,8,8H488a7.99977,7.99977,0,0,0,8-8V24A7.99977,7.99977,0,0,0,488,16ZM472.588,32,368.7124,179.61279a40,40,0,0,1-65.4248,0L199.412,32ZM192,232V49.26965L290.20264,188.8208a56.00026,56.00026,0,0,0,91.59472,0L480,49.26965V232Z"/><path d="M32,192a80.09041,80.09041,0,0,1,80-80,7.99977,7.99977,0,0,0,8-8V93.626L149.46338,128,120,162.374V152a7.99977,7.99977,0,0,0-8-8,48.05436,48.05436,0,0,0-48,48v56H80V192a32.05732,32.05732,0,0,1,24-30.98779V184a8.00031,8.00031,0,0,0,14.07422,5.20654l48-56a8.00071,8.00071,0,0,0,0-10.41308l-48-56A8.00031,8.00031,0,0,0,104,72V96.33008A96.13328,96.13328,0,0,0,16,192v56H32Z"/><path d="M480,320a80.09041,80.09041,0,0,1-80,80,7.99977,7.99977,0,0,0-8,8v10.374L362.53662,384,392,349.626V360a7.99977,7.99977,0,0,0,8,8,48.05436,48.05436,0,0,0,48-48V264H432v56a32.05732,32.05732,0,0,1-24,30.98779V328a8.00031,8.00031,0,0,0-14.07422-5.20654l-48,56a8.00071,8.00071,0,0,0,0,10.41308l48,56A8.00031,8.00031,0,0,0,408,440V415.66992A96.13328,96.13328,0,0,0,496,320V264H480Z"/></g></svg>
