<svg height="82" viewBox="0 0 512 512" width="82" 
xmlns="http://www.w3.org/2000/svg"><g id="Out_line" data-name="Out line">
<path d="m176 64h160v16h-160z"/><path d="m216 152h-32a7.99977 7.99977 0 0 0 -8 8v32a7.99977 7.99977 0 0 0 8 8h32a7.99977 7.99977 0 0 0 8-8v-32a7.99977 7.99977 0 0 0 -8-8zm-8 32h-16v-16h16z"/><path d="m272 152h-32a7.99977 7.99977 0 0 0 -8 8v32a7.99977 7.99977 0 0 0 8 8h32a7.99977 7.99977 0 0 0 8-8v-32a7.99977 7.99977 0 0 0 -8-8zm-8 32h-16v-16h16z"/><path d="m336 160a7.99977 7.99977 0 0 0 -8-8h-32a7.99977 7.99977 0 0 0 -8 8v32a7.99977 7.99977 0 0 0 8 8h32a7.99977 7.99977 0 0 0 8-8zm-16 24h-16v-16h16z"/><path d="m288 120h48v16h-48z"/><path d="m304 96h32v16h-32z"/><path d="m232 120h48v16h-48z"/><path d="m248 96h32v16h-32z"/><path d="m176 120h48v16h-48z"/><path d="m192 96h32v16h-32z"/><circle cx="184" cy="48" r="8"/><circle cx="208" cy="48" r="8"/><circle cx="232" cy="48" r="8"/><path d="m40 336h160v16h-160z"/><circle cx="48" cy="320" r="8"/><circle cx="72" cy="320" r="8"/><circle cx="96" cy="320" r="8"/><path d="m192 424h-128a24 24 0 0 0 0 48h128a7.99977 7.99977 0 0 0 8-8v-32a7.99977 7.99977 0 0 0 -8-8zm-136 24a8 8 0 1 1 8 8 8.00917 8.00917 0 0 1 -8-8zm128 8h-97.3761a23.94217 23.94217 0 0 0 0-16h97.3761z"/><path d="m192 368h-128a24 24 0 0 0 0 48h128a7.99977 7.99977 0 0 0 8-8v-32a7.99977 7.99977 0 0 0 -8-8zm-136 24a8 8 0 1 1 8 8 8.00917 8.00917 0 0 1 -8-8zm128 8h-97.3761a23.94217 23.94217 0 0 0 0-16h97.3761z"/><path d="m472 288h-72v-32a7.99977 7.99977 0 0 0 -8-8h-128v-24h72a24.0275 24.0275 0 0 0 24-24v-160a24.0275 24.0275 0 0 0 -24-24h-160a24.0275 24.0275 0 0 0 -24 24v160a24.0275 24.0275 0 0 0 24 24h72v24h-128a7.99977 7.99977 0 0 0 -8 8v32h-72a24.0275 24.0275 0 0 0 -24 24v160a24.0275 24.0275 0 0 0 24 24h160a24.0275 24.0275 0 0 0 24-24v-160a24.0275 24.0275 0 0 0 -24-24h-72v-24h256v24h-72a24.0275 24.0275 0 0 0 -24 24v160a24.0275 24.0275 0 0 0 24 24h160a24.0275 24.0275 0 0 0 24-24v-160a24.0275 24.0275 0 0 0 -24-24zm-304-88v-160a8.00917 8.00917 0 0 1 8-8h160a8.00917 8.00917 0 0 1 8 8v160a8.00917 8.00917 0 0 1 -8 8h-160a8.00917 8.00917 0 0 1 -8-8zm40 112v160a8.00917 8.00917 0 0 1 -8 8h-160a8.00917 8.00917 0 0 1 -8-8v-160a8.00917 8.00917 0 0 1 8-8h160a8.00917 8.00917 0 0 1 8 8zm272 160a8.00917 8.00917 0 0 1 -8 8h-160a8.00917 8.00917 0 0 1 -8-8v-160a8.00917 8.00917 0 0 1 8-8h160a8.00917 8.00917 0 0 1 8 8z"/><path d="m312 336h160v16h-160z"/><circle cx="320" cy="320" r="8"/><circle cx="344" cy="320" r="8"/><circle cx="368" cy="320" r="8"/><path d="m376 368h-56a7.99977 7.99977 0 0 0 -8 8v56a7.99977 7.99977 0 0 0 8 8h56a7.99977 7.99977 0 0 0 8-8v-56a7.99977 7.99977 0 0 0 -8-8zm-8 56h-40v-40h40z"/><path d="m464 368h-56a7.99977 7.99977 0 0 0 -8 8v56a7.99977 7.99977 0 0 0 8 8h56a7.99977 7.99977 0 0 0 8-8v-56a7.99977 7.99977 0 0 0 -8-8zm-8 56h-40v-40h40z"/><path d="m320 448h32v16h-32z"/><path d="m360 448h16v16h-16z"/><path d="m408 448h32v16h-32z"/><path d="m448 448h16v16h-16z"/></g></svg>