<?xml version="1.0" encoding="utf-8"?><svg xmlns="http://www.w3.org/2000/svg" xmlns:xlink="http://www.w3.org/1999/xlink" width="685" height="395" preserveAspectRatio="xMidYMid" viewBox="0 0 685 395" style="z-index:1;margin-right:-2px;display:block;background-repeat-y:initial;background-repeat-x:initial;background-color:rgb(22, 22, 22);animation-play-state:paused" ><g transform="" style="animation-play-state:paused" ><linearGradient id="lg-0.8341152151720548" x1="0" x2="1" y1="0" y2="0" style="animation-play-state:paused" ><stop stop-color="#161616" offset="0" style="animation-play-state:paused" ></stop>

  
<stop stop-color="#9900fa" offset="1" style="animation-play-state:paused" ></stop></linearGradient>
<path d="M 546 198 C 546 255.4 445.6 328 390.4 346 C 335.2 364 220 358.2 185.8 311.8 C 151.6 265.4 162.4 137.8 196.6 91.4 C 230.8 45 339.4 18.2 394.6 36.2 C 449.8 54.2 546 140.6 546 198" fill="url(#lg-0.8341152151720548)" opacity="0.4" style="opacity:0.4;animation-play-state:paused" ></path>
<path d="M 536.8 198 C 536.8 254.8 446.4 335 392.6 352.8 C 338.8 370.6 216.8 359.4 183 313.4 C 149.2 267.4 174.6 145.6 208.4 99.8 C 242.2 54 330.8 50.4 384.6 68.2 C 438.4 86 536.8 141.2 536.8 198" fill="url(#lg-0.8341152151720548)" opacity="0.4" style="opacity:0.4;animation-play-state:paused" ></path>
<path d="M 563.8 198 C 563.8 260.4 453.8 339.4 394.4 358.2 C 335 377 195 381.6 158.4 331.2 C 121.8 280.8 153.8 137.2 190.4 86.8 C 227 36.4 337.4 11.8 396.8 31.4 C 456.2 51 563.8 135.6 563.8 198" fill="url(#lg-0.8341152151720548)" opacity="0.4" style="opacity:0.4;animation-play-state:paused" ></path>
<path d="M 558.4 198 C 558.4 258.6 455.6 350.6 398 369.2 C 340.4 387.8 217.6 363.2 181.8 314 C 146 264.8 159.6 139.6 195.4 90.4 C 231.2 41.2 336.4 19.4 394 38 C 451.6 56.6 558.4 137.4 558.4 198" fill="url(#lg-0.8341152151720548)" opacity="0.4" style="opacity:0.4;animation-play-state:paused" ></path>
<path d="M 566.8 198 C 566.8 261.2 451.8 328.6 391.6 348.4 C 331.4 368.2 224.2 360.8 187.6 310.4 C 151 260 129.6 120 167 69.4 C 204.4 18.8 328.2 36 388.4 55.8 C 448.6 75.6 566.8 134.8 566.8 198" fill="url(#lg-0.8341152151720548)" opacity="0.4" style="opacity:0.4;animation-play-state:paused" ></path></g></svg>